<?xml version="1.0" encoding="UTF-8"?>
<svg xmlns="http://www.w3.org/2000/svg" xmlns:xlink="http://www.w3.org/1999/xlink" viewBox="0 0 96 96" width="96px" height="96px">
<g id="surface17472231">
<path style=" stroke:none;fill-rule:nonzero;fill:rgb(6.27451%,28.627452%,24.313726%);fill-opacity:1;" d="M 48 8 C 46.976562 8 45.953125 8.390625 45.171875 9.171875 L 33.171875 21.171875 C 32.027344 22.316406 31.6875 24.03125 32.304688 25.53125 C 32.925781 27.027344 34.382812 28 36 28 L 44 28 L 44 60 C 43.980469 61.441406 44.738281 62.785156 45.984375 63.511719 C 47.230469 64.238281 48.769531 64.238281 50.015625 63.511719 C 51.261719 62.785156 52.019531 61.441406 52 60 L 52 28 L 60 28 C 61.617188 28 63.074219 27.027344 63.695312 25.53125 C 63.898438 25.035156 64 24.515625 64 24 C 64 22.960938 63.59375 21.9375 62.828125 21.171875 L 50.828125 9.171875 C 50.046875 8.390625 49.023438 8 48 8 Z M 11.9375 35.945312 C 9.730469 35.980469 7.96875 37.792969 8 40 L 8 80 C 8 84.371094 11.628906 88 16 88 L 80 88 C 84.371094 88 88 84.371094 88 80 L 88 40 C 88.019531 38.558594 87.261719 37.214844 86.015625 36.488281 C 84.769531 35.761719 83.230469 35.761719 81.984375 36.488281 C 80.738281 37.214844 79.980469 38.558594 80 40 L 80 80 L 16 80 L 16 40 C 16.015625 38.917969 15.589844 37.878906 14.824219 37.113281 C 14.0625 36.351562 13.019531 35.929688 11.9375 35.945312 Z M 11.9375 35.945312 "/>
</g>
</svg>
