<?xml version="1.0" encoding="UTF-8"?>
<svg xmlns="http://www.w3.org/2000/svg" xmlns:xlink="http://www.w3.org/1999/xlink" viewBox="0 0 24 24" width="24px" height="24px">
<g id="surface11327317">
<path style=" stroke:none;fill-rule:nonzero;fill:rgb(10.196079%,73.725492%,61.176473%);fill-opacity:1;" d="M 11.207031 0.964844 L 10.324219 4.871094 L 6.707031 7.9375 C 6.257812 8.316406 6 8.875 6 9.460938 L 6 19 C 6 20.09375 6.90625 21 8 21 L 16.632812 21 C 17.386719 21 18.082031 20.570312 18.417969 19.898438 L 21.835938 13.125 C 21.945312 12.914062 22 12.675781 22 12.441406 L 22 10 C 22 8.90625 21.09375 8 20 8 L 15.4375 8 C 15.71875 7.121094 16 5.988281 16 4.863281 C 16 3.128906 14.914062 1.988281 13.945312 1.507812 C 12.976562 1.027344 12.042969 1 12.042969 1 Z M 12.746094 3.214844 C 12.890625 3.257812 12.90625 3.226562 13.054688 3.296875 C 13.585938 3.5625 14 3.855469 14 4.863281 C 14 6.25 13.078125 8.609375 13.078125 8.609375 L 12.492188 10 L 20 10 L 20 12.324219 L 16.632812 19 L 8 19 L 8 9.460938 L 12.125 5.964844 Z M 2 8 L 2 21 L 4 21 L 4 8 Z M 2 8 "/>
</g>
</svg>
