<?xml version="1.0" encoding="UTF-8"?>
<svg xmlns="http://www.w3.org/2000/svg" xmlns:xlink="http://www.w3.org/1999/xlink" viewBox="0 0 24 24" width="24px" height="24px">
<g id="surface11333334">
<path style=" stroke:none;fill-rule:nonzero;fill:rgb(10.196079%,73.725492%,61.176473%);fill-opacity:1;" d="M 1 2 L 1 14 L 7 14 C 7.003906 14.527344 7.210938 15.03125 7.585938 15.402344 L 14.167969 22 L 15.03125 21.148438 C 15.523438 20.667969 15.730469 19.96875 15.585938 19.296875 L 14.648438 15 L 21 15 C 22.105469 15 23 14.105469 23 13 L 23 11 C 23 10.730469 22.945312 10.460938 22.839844 10.214844 L 19.832031 3.210938 C 19.515625 2.476562 18.792969 2 17.992188 2 L 9 2 C 8.632812 2 8.296875 2.105469 8 2.277344 C 7.703125 2.105469 7.367188 2 7 2 Z M 3 4 L 7 4 L 7 12 L 3 12 Z M 9 4 L 17.992188 4 L 21 11 L 21 13 L 12.167969 13 L 12.691406 15.425781 L 13.324219 18.328125 L 9 13.992188 Z M 9 4 "/>
</g>
</svg>
