<?xml version="1.0" encoding="UTF-8"?>
<svg xmlns="http://www.w3.org/2000/svg" xmlns:xlink="http://www.w3.org/1999/xlink" viewBox="0 0 128 128" width="128px" height="128px">
<g id="surface11047167">
<path style=" stroke:none;fill-rule:nonzero;fill:rgb(10.196079%,73.725492%,61.176473%);fill-opacity:1;" d="M 91.789062 14.410156 C 90.425781 14.433594 89.332031 15.546875 89.332031 16.910156 L 89.332031 30.25 C 75.828125 30.789062 69.066406 36.386719 68.03125 37.316406 C 61.21875 42.90625 56.570312 50.699219 54.878906 59.347656 C 54.035156 63.523438 53.882812 67.8125 54.433594 72.042969 L 54.433594 72.054688 C 54.4375 72.09375 54.445312 72.132812 54.453125 72.167969 L 54.984375 75.222656 C 55.160156 76.25 55.960938 77.058594 56.988281 77.25 C 58.015625 77.441406 59.050781 76.976562 59.589844 76.078125 L 61.179688 73.425781 C 66.070312 65.292969 72.167969 59.902344 79.296875 57.40625 C 82.515625 56.265625 85.921875 55.769531 89.332031 55.933594 L 89.332031 69.75 C 89.328125 70.761719 89.941406 71.675781 90.875 72.0625 C 91.8125 72.449219 92.886719 72.230469 93.601562 71.515625 L 120.023438 44.960938 C 120.488281 44.492188 120.75 43.855469 120.75 43.191406 C 120.746094 42.527344 120.484375 41.890625 120.011719 41.425781 L 93.59375 15.136719 C 93.117188 14.660156 92.464844 14.398438 91.789062 14.410156 Z M 94.332031 22.925781 L 114.714844 43.207031 L 94.332031 63.691406 L 94.332031 53.683594 C 94.332031 52.457031 93.441406 51.414062 92.230469 51.21875 C 90.089844 50.871094 84.386719 50.324219 77.644531 52.6875 C 70.453125 55.207031 64.230469 60.164062 59.109375 67.449219 C 59.09375 65.054688 59.320312 62.667969 59.785156 60.316406 C 61.304688 52.632812 65.164062 46.183594 71.253906 41.140625 C 71.308594 41.097656 71.359375 41.050781 71.40625 41 C 71.582031 40.839844 77.933594 35.105469 91.808594 35.210938 L 91.828125 35.210938 C 93.210938 35.210938 94.328125 34.089844 94.332031 32.710938 Z M 19.75 29.027344 C 12.851562 29.035156 7.257812 34.628906 7.25 41.527344 L 7.25 101.089844 C 7.257812 107.988281 12.851562 113.582031 19.75 113.589844 L 101.589844 113.589844 C 108.488281 113.582031 114.082031 107.988281 114.089844 101.089844 L 114.089844 90.523438 C 114.089844 89.144531 112.96875 88.023438 111.589844 88.023438 C 110.207031 88.023438 109.089844 89.144531 109.089844 90.523438 L 109.089844 101.089844 C 109.082031 105.230469 105.730469 108.585938 101.589844 108.589844 L 19.75 108.589844 C 15.609375 108.585938 12.253906 105.230469 12.25 101.089844 L 12.25 41.527344 C 12.253906 37.386719 15.609375 34.03125 19.75 34.027344 L 37.039062 34.027344 C 38.421875 34.027344 39.539062 32.910156 39.539062 31.527344 C 39.539062 30.148438 38.421875 29.027344 37.039062 29.027344 Z M 19.75 29.027344 "/>
</g>
</svg>
