<svg width="281" height="275" viewBox="0 0 281 275" fill="none" xmlns="http://www.w3.org/2000/svg">
<path d="M196.656 225.479H87.0661C68.5267 225.479 53.3461 210.633 53.3461 192.479V85.2285C53.3461 67.0742 68.5267 52.2285 87.0661 52.2285H196.656C215.206 52.2285 230.376 67.0742 230.376 85.2285V192.479C230.376 210.633 215.206 225.479 196.656 225.479Z" fill="#1ABC9C"/>
<path d="M196.656 228.229H87.0661C66.8912 228.229 50.5361 212.223 50.5361 192.479V85.2285C50.5361 65.4844 66.8912 49.4785 87.0661 49.4785H196.656C216.831 49.4785 233.186 65.4844 233.186 85.2285V192.479C233.186 212.223 216.831 228.229 196.656 228.229ZM56.1561 85.2285V192.479C56.1561 209.183 69.9975 222.729 87.0661 222.729H196.656C213.736 222.729 227.566 209.183 227.566 192.479V85.2285C227.566 68.5244 213.736 54.9785 196.656 54.9785H87.0661C69.9975 54.9785 56.1561 68.5244 56.1561 85.2285Z" fill="#1F212B"/>
<path d="M188.687 214.479H95.046C78.2299 214.479 64.5861 201.137 64.5861 184.68V93.0273C64.5861 76.5703 78.2299 63.2285 95.046 63.2285H189.631C190.41 63.2285 191.036 63.8408 191.036 64.6035C191.036 65.3662 190.41 65.9785 189.631 65.9785H95.046C79.7776 65.9785 67.3961 78.085 67.3961 93.0273V184.669C67.3961 199.611 79.7776 211.729 95.046 211.729H188.687C203.955 211.729 216.326 199.622 216.326 184.68V133.354C216.326 132.591 216.963 131.979 217.731 131.979C218.51 131.979 219.136 132.591 219.136 133.354V184.669C219.136 201.137 205.503 214.479 188.687 214.479ZM217.731 125.318C216.963 125.318 216.326 124.706 216.326 123.943V112.943C216.326 112.191 216.963 111.568 217.731 111.568C218.51 111.568 219.136 112.191 219.136 112.943V123.943C219.136 124.706 218.51 125.318 217.731 125.318ZM217.731 108.818C216.963 108.818 216.326 108.206 216.326 107.443V101.943C216.326 101.191 216.963 100.568 217.731 100.568C218.51 100.568 219.136 101.191 219.136 101.943V107.443C219.136 108.206 218.51 108.818 217.731 108.818Z" fill="#1F212B"/>
<path d="M82.895 108.625V180.125C82.895 180.125 91.2701 171.875 108.185 171.875C130.665 171.875 139.205 191.125 139.205 191.125V111.375C139.205 111.375 130.665 94.875 111.05 94.875C88.515 94.875 82.895 108.625 82.895 108.625Z" fill="white"/>
<path d="M201.025 108.625V180.125C201.025 180.125 192.65 171.875 175.735 171.875C153.255 171.875 144.715 191.125 144.715 191.125V111.375C144.715 111.375 153.255 94.875 172.87 94.875C195.405 94.875 201.025 108.625 201.025 108.625Z" fill="white"/>
<path d="M82.895 108.625V180.125C82.895 180.125 91.2701 171.875 108.185 171.875C130.665 171.875 139.205 191.125 139.205 191.125V111.375C139.205 111.375 130.665 94.8749 111.05 94.8749C88.515 94.8749 82.895 108.625 82.895 108.625Z" stroke="#1F212B" stroke-width="0.581395" stroke-miterlimit="10" stroke-linecap="round" stroke-linejoin="round"/>
<path d="M201.025 108.625V180.125C201.025 180.125 192.65 171.875 175.735 171.875C153.255 171.875 144.715 191.125 144.715 191.125V111.375C144.715 111.375 153.255 94.8749 172.87 94.8749C195.405 94.8749 201.025 108.625 201.025 108.625Z" stroke="#1F212B" stroke-width="0.581395" stroke-miterlimit="10" stroke-linecap="round" stroke-linejoin="round"/>
</svg>
